<svg xmlns="http://www.w3.org/2000/svg" viewBox="0 0 128 96">
  <defs>
    <linearGradient id="body" x1="20%" x2="80%" y1="0%" y2="100%">
      <stop offset="0" stop-color="#ecfeff"/>
      <stop offset="0.5" stop-color="#67e8f9"/>
      <stop offset="1" stop-color="#38bdf8"/>
    </linearGradient>
    <filter id="softGlow" x="-20%" y="-20%" width="140%" height="140%">
      <feGaussianBlur stdDeviation="1.5" result="blur"/>
      <feMerge>
        <feMergeNode in="blur"/>
        <feMergeNode in="SourceGraphic"/>
      </feMerge>
    </filter>
  </defs>
  <path d="M23 48c3-20 18-33 41-33s38 13 41 33c4 2 7 7 8 13-6-1-11 0-15 3-5 13-18 21-34 21s-29-8-34-21c-4-3-9-4-15-3 1-6 4-11 8-13Z" fill="url(#body)" filter="url(#softGlow)"/>
  <path d="M39 38c6-5 14-8 25-8s19 3 25 8" fill="none" stroke="#cffafe" stroke-width="5" stroke-linecap="round" opacity=".9"/>
  <ellipse cx="47" cy="50" rx="9" ry="8" fill="#1f2937"/>
  <ellipse cx="81" cy="50" rx="9" ry="8" fill="#1f2937"/>
  <circle cx="50" cy="47" r="2.6" fill="#f8fafc"/>
  <circle cx="84" cy="47" r="2.6" fill="#f8fafc"/>
  <path d="M57 65c5 3 9 3 14 0" fill="none" stroke="#0f172a" stroke-width="3.5" stroke-linecap="round"/>
  <path d="M18 39 6 26M110 39l12-13M32 72 23 84M49 79l-4 10M79 79l4 10M96 72l9 12" fill="none" stroke="#bae6fd" stroke-width="7" stroke-linecap="round"/>
</svg>
