<svg xmlns="http://www.w3.org/2000/svg" viewBox="0 0 128 96">
  <defs>
    <linearGradient id="body" x1="15%" x2="85%" y1="0%" y2="100%">
      <stop offset="0" stop-color="#f0fdf4"/>
      <stop offset="0.48" stop-color="#86efac"/>
      <stop offset="1" stop-color="#34d399"/>
    </linearGradient>
    <filter id="softGlow" x="-20%" y="-20%" width="140%" height="140%">
      <feGaussianBlur stdDeviation="1.5" result="blur"/>
      <feMerge>
        <feMergeNode in="blur"/>
        <feMergeNode in="SourceGraphic"/>
      </feMerge>
    </filter>
  </defs>
  <path d="M26 30c10-11 23-17 38-17s28 6 38 17c7 8 11 18 12 30-6-2-11-1-15 2-5 11-15 17-35 17s-30-6-35-17c-4-3-9-4-15-2 1-12 5-22 12-30Z" fill="url(#body)" filter="url(#softGlow)"/>
  <path d="M36 41c7-6 16-9 28-9s21 3 28 9" fill="none" stroke="#dcfce7" stroke-width="6" stroke-linecap="round" opacity=".9"/>
  <ellipse cx="48" cy="50" rx="9" ry="10" fill="#1f2937"/>
  <ellipse cx="80" cy="50" rx="9" ry="10" fill="#1f2937"/>
  <circle cx="51" cy="46" r="2.6" fill="#f8fafc"/>
  <circle cx="83" cy="46" r="2.6" fill="#f8fafc"/>
  <path d="M56 66c6 4 10 4 16 0" fill="none" stroke="#14532d" stroke-width="3.5" stroke-linecap="round"/>
  <path d="M24 71 15 83M41 80l-4 9M64 82v10M87 80l4 9M104 71l9 12" fill="none" stroke="#bbf7d0" stroke-width="7" stroke-linecap="round"/>
</svg>
