<svg xmlns="http://www.w3.org/2000/svg" viewBox="0 0 128 96">
  <defs>
    <linearGradient id="hide" x1="15%" x2="85%" y1="0%" y2="100%">
      <stop offset="0" stop-color="#dcfce7"/>
      <stop offset="0.42" stop-color="#34d399"/>
      <stop offset="1" stop-color="#064e3b"/>
    </linearGradient>
    <filter id="glow" x="-30%" y="-30%" width="160%" height="160%">
      <feGaussianBlur stdDeviation="3" result="blur"/>
      <feMerge>
        <feMergeNode in="blur"/>
        <feMergeNode in="SourceGraphic"/>
      </feMerge>
    </filter>
  </defs>
  <path d="M25 28C36 15 49 9 64 9s28 6 39 19l15-7c-1 15-6 27-15 35v16c0 10-8 17-19 17H44c-11 0-19-7-19-17V56c-9-8-14-20-15-35l15 7Z" fill="url(#hide)" filter="url(#glow)"/>
  <path d="M36 38c8-8 17-12 28-12s20 4 28 12" fill="none" stroke="#bbf7d0" stroke-width="7" stroke-linecap="round" opacity=".75"/>
  <ellipse cx="47" cy="52" rx="11" ry="14" fill="#031712"/>
  <ellipse cx="81" cy="52" rx="11" ry="14" fill="#031712"/>
  <circle cx="50" cy="47" r="3" fill="#f0fdf4"/>
  <circle cx="84" cy="47" r="3" fill="#f0fdf4"/>
  <path d="M47 73h34" stroke="#052e23" stroke-width="6" stroke-linecap="round"/>
  <path d="M28 72 13 88M45 83l-5 11M64 84v12M83 83l5 11M100 72l15 16" fill="none" stroke="#86efac" stroke-width="9" stroke-linecap="round"/>
  <path d="M22 39 4 42M106 39l18 3" stroke="#86efac" stroke-width="8" stroke-linecap="round"/>
</svg>
