<svg xmlns="http://www.w3.org/2000/svg" viewBox="0 0 128 96">
  <defs>
    <radialGradient id="body" cx="50%" cy="38%" r="68%">
      <stop offset="0" stop-color="#fff7ed"/>
      <stop offset="0.5" stop-color="#f9a8d4"/>
      <stop offset="1" stop-color="#c084fc"/>
    </radialGradient>
    <filter id="softGlow" x="-20%" y="-20%" width="140%" height="140%">
      <feGaussianBlur stdDeviation="1.5" result="blur"/>
      <feMerge>
        <feMergeNode in="blur"/>
        <feMergeNode in="SourceGraphic"/>
      </feMerge>
    </filter>
  </defs>
  <path d="M64 10c17 0 31 11 36 26 8 4 14 12 16 21-7-2-13-1-18 2-4 14-17 22-34 22s-30-8-34-22c-5-3-11-4-18-2 2-9 8-17 16-21 5-15 19-26 36-26Z" fill="url(#body)" filter="url(#softGlow)"/>
  <path d="M40 47c5-8 13-13 24-13s19 5 24 13c-5 7-13 10-24 10s-19-3-24-10Z" fill="#ffe4f1" opacity=".7"/>
  <ellipse cx="50" cy="48" rx="8" ry="10" fill="#1f2937"/>
  <ellipse cx="78" cy="48" rx="8" ry="10" fill="#1f2937"/>
  <circle cx="52" cy="44" r="2.6" fill="#f8fafc"/>
  <circle cx="80" cy="44" r="2.6" fill="#f8fafc"/>
  <path d="M58 65c4 4 8 4 12 0" fill="none" stroke="#7c2d12" stroke-width="3.5" stroke-linecap="round"/>
  <path d="M36 75c-4 6-7 9-11 12M48 79l-5 9M64 81v11M80 79l5 9M92 75c4 6 7 9 11 12" fill="none" stroke="#fde68a" stroke-width="7" stroke-linecap="round"/>
</svg>
