<svg xmlns="http://www.w3.org/2000/svg" viewBox="0 0 64 48" shape-rendering="crispEdges">
  <rect width="64" height="48" fill="none"/>
  <g fill="#f8fafc">
    <rect x="28" y="4" width="8" height="4"/>
    <rect x="24" y="8" width="16" height="4"/>
    <rect x="20" y="12" width="24" height="4"/>
    <rect x="16" y="16" width="32" height="4"/>
    <rect x="12" y="20" width="40" height="4"/>
    <rect x="16" y="24" width="32" height="4"/>
    <rect x="20" y="28" width="8" height="4"/>
    <rect x="28" y="28" width="8" height="4"/>
    <rect x="36" y="28" width="8" height="4"/>
    <rect x="8" y="28" width="4" height="4"/>
    <rect x="12" y="32" width="4" height="4"/>
    <rect x="20" y="32" width="4" height="4"/>
    <rect x="28" y="32" width="4" height="4"/>
    <rect x="36" y="32" width="4" height="4"/>
    <rect x="44" y="32" width="4" height="4"/>
    <rect x="52" y="28" width="4" height="4"/>
    <rect x="48" y="32" width="4" height="4"/>
  </g>
  <g fill="#0f172a">
    <rect x="24" y="12" width="4" height="4"/>
    <rect x="36" y="12" width="4" height="4"/>
    <rect x="24" y="16" width="4" height="4"/>
    <rect x="36" y="16" width="4" height="4"/>
  </g>
</svg>
