<svg xmlns="http://www.w3.org/2000/svg" viewBox="0 0 160 96">
  <defs>
    <linearGradient id="hull" x1="10%" x2="90%" y1="0%" y2="100%">
      <stop offset="0" stop-color="#f0f9ff"/>
      <stop offset="0.42" stop-color="#7dd3fc"/>
      <stop offset="1" stop-color="#0e7490"/>
    </linearGradient>
    <filter id="glow" x="-30%" y="-30%" width="160%" height="160%">
      <feGaussianBlur stdDeviation="3" result="blur"/>
      <feMerge>
        <feMergeNode in="blur"/>
        <feMergeNode in="SourceGraphic"/>
      </feMerge>
    </filter>
  </defs>
  <path d="M71 13h18l8 33h36c8 0 15 7 15 15v8H12v-8c0-8 7-15 15-15h36l8-33Z" fill="url(#hull)" filter="url(#glow)"/>
  <path d="M76 4h8c5 0 9 4 9 9v34H67V13c0-5 4-9 9-9Z" fill="#e0f2fe"/>
  <path d="M38 46h84l13 18H25l13-18Z" fill="#155e75" opacity=".52"/>
  <circle cx="48" cy="61" r="7" fill="#cffafe"/>
  <circle cx="112" cy="61" r="7" fill="#cffafe"/>
  <path d="M19 76h122" stroke="#67e8f9" stroke-width="6" stroke-linecap="round"/>
  <path d="M70 28h20" stroke="#083344" stroke-width="5" stroke-linecap="round"/>
</svg>
